<svg xmlns="http://www.w3.org/2000/svg" viewBox="0 0 64 64"><title>1</title><g id="Layer_8" data-name="Layer 8"><path d="M20.19,36.11l2.23,6.61,2.24-6.66q.17-.53.26-.73a1,1,0,0,1,.29-.37.85.85,0,0,1,.55-.16.93.93,0,0,1,.47.13,1,1,0,0,1,.34.34.84.84,0,0,1,.12.43,1.41,1.41,0,0,1,0,.32,2.87,2.87,0,0,1-.1.34l-.12.34-2.39,6.45q-.13.37-.26.7a3,3,0,0,1-.3.58,1.33,1.33,0,0,1-.45.41,1.35,1.35,0,0,1-.68.16,1.37,1.37,0,0,1-.68-.16,1.3,1.3,0,0,1-.45-.42,3.06,3.06,0,0,1-.3-.59q-.13-.33-.26-.7l-2.35-6.39-.12-.34a2.64,2.64,0,0,1-.11-.36,1.54,1.54,0,0,1,0-.33.88.88,0,0,1,.28-.63.93.93,0,0,1,.69-.28.81.81,0,0,1,.72.31A4.16,4.16,0,0,1,20.19,36.11Z"/><path d="M36.43,41.71a2.63,2.63,0,0,1-.23,1,3.67,3.67,0,0,1-.73,1.08,3.72,3.72,0,0,1-1.27.86,4.57,4.57,0,0,1-1.8.33A6.3,6.3,0,0,1,31,44.85a4,4,0,0,1-1.16-.46,3.91,3.91,0,0,1-1-.82,4.93,4.93,0,0,1-.67-1,5.43,5.43,0,0,1-.41-1.23,6.7,6.7,0,0,1-.14-1.39A6.15,6.15,0,0,1,28,37.77a4.55,4.55,0,0,1,1-1.61,4.33,4.33,0,0,1,1.51-1,4.91,4.91,0,0,1,1.85-.35,4.62,4.62,0,0,1,2.13.48,3.86,3.86,0,0,1,1.43,1.18,2.33,2.33,0,0,1,.5,1.33.87.87,0,0,1-.24.61.77.77,0,0,1-.58.26.81.81,0,0,1-.58-.18,2.5,2.5,0,0,1-.43-.63,3,3,0,0,0-.92-1.1,2.24,2.24,0,0,0-1.3-.36,2.36,2.36,0,0,0-2,.94A4.23,4.23,0,0,0,29.67,40,4.93,4.93,0,0,0,30,41.89,2.42,2.42,0,0,0,30.9,43a2.52,2.52,0,0,0,1.39.38A2.43,2.43,0,0,0,33.75,43a2.58,2.58,0,0,0,.9-1.25,2.13,2.13,0,0,1,.32-.64.71.71,0,0,1,.61-.25.85.85,0,0,1,.61.25A.83.83,0,0,1,36.43,41.71Z"/><path d="M45.73,41.86a2.9,2.9,0,0,1-.46,1.61,3.06,3.06,0,0,1-1.35,1.12,5.06,5.06,0,0,1-2.11.4,4.74,4.74,0,0,1-2.41-.55,3.21,3.21,0,0,1-1.09-1.06,2.4,2.4,0,0,1-.42-1.29.87.87,0,0,1,.9-.88.76.76,0,0,1,.53.2,1.6,1.6,0,0,1,.37.6,4,4,0,0,0,.41.79,1.65,1.65,0,0,0,.62.52,2.27,2.27,0,0,0,1,.21,2.35,2.35,0,0,0,1.44-.41,1.24,1.24,0,0,0,.56-1,1.09,1.09,0,0,0-.3-.8,1.93,1.93,0,0,0-.77-.47q-.47-.16-1.27-.34a9.3,9.3,0,0,1-1.78-.58A2.88,2.88,0,0,1,38.5,39a2.36,2.36,0,0,1-.42-1.43,2.46,2.46,0,0,1,.44-1.45,2.8,2.8,0,0,1,1.29-1,5.27,5.27,0,0,1,2-.34,4.89,4.89,0,0,1,1.57.23,3.33,3.33,0,0,1,1.1.6,2.5,2.5,0,0,1,.64.78,1.8,1.8,0,0,1,.2.8,1,1,0,0,1-.25.64.8.8,0,0,1-.63.29.72.72,0,0,1-.52-.17,2.31,2.31,0,0,1-.39-.56,2.55,2.55,0,0,0-.65-.87,1.89,1.89,0,0,0-1.21-.31,2.1,2.1,0,0,0-1.25.34,1,1,0,0,0-.47.82.83.83,0,0,0,.16.51,1.35,1.35,0,0,0,.44.37,3,3,0,0,0,.57.24l1,.26a15,15,0,0,1,1.51.43,4.58,4.58,0,0,1,1.15.57,2.35,2.35,0,0,1,.74.85A2.72,2.72,0,0,1,45.73,41.86Zm9.74-24.69a1.49,1.49,0,0,0-.11-.55v0a1.5,1.5,0,0,0-.33-.49L41.85,2.94a1.5,1.5,0,0,0-.49-.33h0a1.49,1.49,0,0,0-.55-.11H12.51a4,4,0,0,0-4,4V57.53a4,4,0,0,0,4,4h39a4,4,0,0,0,4-4V17.18h0ZM11.54,33.79a35.74,35.74,0,0,1,40.92,0v12.9a35.74,35.74,0,0,1-40.92,0ZM42.28,7.62l8.06,8.06H42.43a.15.15,0,0,1-.15-.15ZM12.51,5.5H39.28v10a3.15,3.15,0,0,0,3.15,3.15h10v11.5a38.86,38.86,0,0,0-40.92,0V6.47A1,1,0,0,1,12.51,5.5Zm39,53h-39a1,1,0,0,1-1-1V50.3a38.86,38.86,0,0,0,40.92,0v7.23A1,1,0,0,1,51.49,58.5Z"/></g></svg>